<?xml version="1.0" standalone="no"?>
<!DOCTYPE svg PUBLIC "-//W3C//DTD SVG 20010904//EN"
 "http://www.w3.org/TR/2001/REC-SVG-20010904/DTD/svg10.dtd">
<svg version="1.0" xmlns="http://www.w3.org/2000/svg"
 width="600.000000pt" height="302.000000pt" viewBox="0 0 600.000000 302.000000"
 preserveAspectRatio="xMidYMid meet">
<metadata>
Created by potrace 1.14, written by Peter Selinger 2001-2017
</metadata>
<g transform="translate(0.000000,302.000000) scale(0.100000,-0.100000)"
fill="#000000" stroke="none">
<path d="M3392 3001 c-29 -10 -58 -23 -64 -29 -9 -9 1 -73 29 -174 4 -17 -19
-18 -374 -18 -382 0 -614 8 -1018 36 -325 22 -709 29 -840 15 -294 -31 -843
-153 -938 -209 -97 -56 -154 -295 -177 -742 -32 -637 19 -1258 118 -1420 36
-58 66 -74 219 -116 279 -77 548 -131 778 -155 131 -14 515 -7 840 15 404 28
636 36 1018 36 355 0 378 -1 374 -17 -3 -10 -13 -51 -23 -92 -16 -72 -16 -75
2 -88 25 -18 110 -43 148 -43 41 0 112 36 134 68 10 15 31 60 47 101 l28 74
301 -5 c246 -4 308 -8 339 -22 90 -37 201 -49 432 -43 243 6 342 21 500 77
479 169 735 608 735 1260 0 734 -316 1185 -920 1312 -138 28 -500 37 -622 14
-47 -9 -104 -24 -125 -32 -31 -14 -93 -18 -339 -22 l-301 -5 -28 74 c-38 97
-57 123 -108 148 -53 26 -95 26 -165 2z m141 -85 c10 -8 36 -59 57 -113 l39
-98 335 -3 c334 -2 335 -2 409 23 194 65 596 52 837 -27 75 -24 187 -78 246
-119 40 -27 42 -32 49 -91 22 -207 115 -338 261 -368 l54 -11 24 -78 c53 -166
61 -236 61 -521 0 -285 -8 -355 -61 -521 l-24 -78 -54 -11 c-146 -30 -239
-161 -261 -368 -7 -59 -9 -64 -49 -91 -59 -41 -171 -95 -246 -119 -241 -79
-643 -92 -837 -27 -74 25 -75 25 -409 23 l-335 -3 -39 -98 c-21 -54 -47 -105
-57 -113 -23 -17 -102 -18 -109 -1 -2 7 6 58 19 112 l24 100 -501 3 c-447 2
-548 0 -931 -24 -791 -48 -999 -36 -1510 92 -256 64 -301 80 -323 117 -36 57
-69 216 -94 442 -18 165 -18 965 0 1130 25 226 58 385 94 442 22 37 67 53 323
117 511 128 719 140 1510 92 383 -24 484 -26 931 -24 l501 3 -24 100 c-13 54
-21 105 -19 112 7 17 86 16 109 -1z"/>
<path d="M1960 2560 c-151 -20 -248 -59 -311 -127 -37 -39 -69 -83 -69 -94 0
-15 346 -34 620 -34 369 0 645 25 941 85 209 43 474 133 474 162 0 15 30 14
-620 9 -220 -2 -528 -1 -685 2 -157 3 -314 2 -350 -3z"/>
<path d="M3723 2431 c-215 -43 -282 -66 -342 -118 -76 -64 -71 -12 -71 -803 0
-787 -4 -738 66 -800 62 -54 134 -78 358 -121 253 -49 310 -49 410 0 73 36
161 123 215 215 207 348 207 1064 0 1412 -55 92 -142 179 -216 216 -98 48
-176 48 -420 -1z"/>
<path d="M4790 2367 c8 -8 67 -28 130 -46 150 -41 229 -81 279 -139 88 -102
86 -100 89 -75 2 12 -3 34 -12 50 -35 68 -113 114 -266 158 -52 15 -120 35
-150 46 -67 23 -91 25 -70 6z"/>
<path d="M1041 2219 c-182 -30 -244 -44 -276 -63 -172 -101 -290 -447 -256
-751 30 -262 125 -464 256 -541 55 -32 536 -112 600 -100 57 11 121 79 130
138 3 24 5 314 3 645 l-3 601 -31 39 c-39 49 -87 73 -144 72 -25 -1 -150 -19
-279 -40z"/>
<path d="M5236 882 c-54 -86 -133 -132 -316 -183 -63 -18 -122 -38 -130 -46
-21 -19 3 -17 70 6 30 11 98 31 150 46 152 43 231 90 266 157 33 64 -1 81 -40
20z"/>
<path d="M1950 714 c-227 -15 -370 -28 -370 -33 0 -11 32 -55 69 -94 47 -51
133 -94 229 -114 84 -18 76 -18 987 -17 292 0 580 0 640 0 143 -1 146 13 14
66 -199 79 -481 139 -829 174 -138 14 -622 26 -740 18z"/>
</g>
</svg>
